<svg width="100" height="23" viewBox="0 0 100 23" fill="none" xmlns="http://www.w3.org/2000/svg">
<path d="M1.56986 3.9084V8.60367C1.56986 9.3739 1.56986 10.239 0 10.239V11.5076V11.5247V12.7615C1.56986 12.7615 1.56986 13.6261 1.56986 14.3968V19.0916C1.56986 22.7354 3.53132 23 6.86659 23V20.166C5.29673 20.166 4.70859 19.9308 4.70859 19.0217V14.3729C4.70859 13.2994 4.781 12.1781 3.86036 11.4998C4.781 10.8224 4.70859 9.70107 4.70859 8.62665V3.97882C4.70859 3.07068 5.29722 2.83447 6.86659 2.83447V6.72436e-07C3.53132 -0.000487693 1.56986 0.264082 1.56986 3.9084ZM10.3959 3.75631C9.53835 4.49378 9.10981 5.55304 9.10981 6.93311V8.17282H7.31829V10.7633H9.10981V20.1509H13.0027V10.7633H15.4144V8.17282H13.0027V7.28864C13.0027 6.83872 13.1327 6.49199 13.3928 6.24845C13.6529 6.00491 14.0248 5.88363 14.507 5.88363C14.744 5.88363 15.9542 5.88754 15.9542 5.88754V2.88142C15.9542 2.88142 13.7933 2.85746 13.4844 2.85746C12.5446 2.85746 11.2535 3.01786 10.3959 3.75631ZM17.6664 5.87678H21.5598V2.88142H17.6664V5.87678ZM17.6664 20.1513H21.5598V8.17282H17.6664V20.1513ZM31.1602 7.95129C30.4253 7.95129 29.7588 8.11952 29.1618 8.455C28.5648 8.79048 28.0634 9.258 27.6575 9.85512L27.5082 8.17282H23.8676V20.1509H27.7378V11.5389C27.9368 11.3173 28.1762 11.1428 28.4555 11.0185C28.7348 10.8943 29.0544 10.8303 29.4145 10.8303C29.9889 10.8303 30.4233 10.9726 30.7179 11.2562C31.0125 11.5408 31.1602 12.025 31.1602 12.7121V20.1518H35.0418V12.7233C35.0418 11.0626 34.6989 9.85218 34.0142 9.09173C33.3291 8.33127 32.3774 7.95129 31.1602 7.95129ZM46.781 14.2452C46.05 13.6735 44.9259 13.2427 43.4102 12.9551C42.4458 12.7791 41.8039 12.5786 41.4867 12.357C41.169 12.1365 41.0099 11.866 41.0099 11.5491C41.0099 11.2166 41.1478 10.9452 41.4232 10.7305C41.6985 10.5163 42.0394 10.4087 42.4453 10.4087C42.9965 10.4087 43.3964 10.531 43.6452 10.7745C43.894 11.0181 44.0186 11.376 44.0186 11.848H47.7854L47.8085 11.7819C47.8548 10.6513 47.3878 9.73237 46.4076 9.01984C45.4274 8.30731 44.1102 7.9508 42.4566 7.9508C40.8867 7.9508 39.643 8.31856 38.7238 9.05309C37.8052 9.78763 37.3461 10.6816 37.3461 11.7364C37.3461 12.7326 37.7135 13.5195 38.4485 14.0946C39.1834 14.6707 40.2745 15.0947 41.7217 15.3681C42.6403 15.5524 43.2738 15.7608 43.6221 15.993C43.9708 16.2258 44.1447 16.4904 44.1447 16.7838C44.1447 17.1457 44.0107 17.4254 43.7427 17.6196C43.4748 17.8152 43.0807 17.9145 42.56 17.9145C41.9325 17.9145 41.4478 17.7878 41.1074 17.5374C40.7666 17.287 40.5887 16.8772 40.5735 16.309H37.0594L37.0367 16.375C36.9909 17.3941 37.4594 18.317 38.4435 19.1429C39.4272 19.9699 40.7651 20.3827 42.4571 20.3827C44.088 20.3827 45.3988 20.034 46.3904 19.3361C47.3824 18.6387 47.878 17.7521 47.878 16.6738C47.878 15.6268 47.512 14.8169 46.781 14.2452ZM60.6378 15.1142H60.5688L58.5251 8.1738H56.0785L54.0574 15.1705H53.9884L52.622 8.1738H49.039L51.9674 20.1518H55.2411L57.273 13.7977H57.3419L59.3635 20.1518H62.648L65.5651 8.1738H61.9821L60.6378 15.1142ZM72.1553 7.95122C70.3101 7.94395 68.891 8.51808 67.8999 9.67319C66.9074 10.8278 66.4118 12.3169 66.4118 14.1396V14.5607C66.4118 16.2283 66.9576 17.6162 68.0477 18.7234C69.1388 19.831 70.5998 20.3841 72.4297 20.3841C73.4173 20.3841 74.3419 20.257 75.2034 20.0022C76.0645 19.7479 76.7674 19.429 77.3102 19.0451L76.392 16.7643C75.7182 17.0381 75.1611 17.2293 74.7207 17.3403C74.2798 17.4519 73.6922 17.5071 72.9573 17.5071C72.2297 17.5071 71.6485 17.3095 71.212 16.9149C70.7751 16.5188 70.5155 16.0155 70.4308 15.4033L70.4545 15.3363H77.5511V13.3757C77.5511 11.7081 77.0723 10.3872 76.1157 9.41254C75.1601 8.43837 73.839 7.95122 72.1553 7.95122ZM73.7631 13.0001H70.421L70.3865 12.9454C70.4481 12.3028 70.6185 11.7898 70.8983 11.4059C71.1771 11.0229 71.5968 10.8307 72.1558 10.8307C72.707 10.8307 73.1119 10.9931 73.3735 11.3178C73.6336 11.6426 73.7641 12.1076 73.7641 12.7126L73.7631 13.0001ZM85.1812 7.95122C83.336 7.94395 81.9178 8.51808 80.9258 9.67319C79.9347 10.8278 79.4382 12.3169 79.4382 14.1396V14.5607C79.4382 16.2283 79.9839 17.6162 81.075 18.7234C82.1666 19.831 83.6261 20.3841 85.456 20.3841C86.4442 20.3841 87.3687 20.257 88.2307 20.0022C89.0918 19.7479 89.7942 19.429 90.3375 19.0451L89.4189 16.7643C88.745 17.0381 88.1884 17.2293 87.7475 17.3403C87.3062 17.4519 86.7195 17.5071 85.9841 17.5071C85.257 17.5071 84.6758 17.3095 84.2389 16.9149C83.8019 16.5188 83.5424 16.0155 83.4576 15.4033L83.4808 15.3363H90.5779V13.3757C90.5779 11.7081 90.0991 10.3872 89.1425 9.41254C88.1854 8.43837 86.8658 7.95122 85.1812 7.95122ZM86.7885 13.0001H83.4473L83.4128 12.9454C83.4744 12.3028 83.6448 11.7898 83.9236 11.4059C84.2024 11.0229 84.6221 10.8307 85.1812 10.8307C85.7324 10.8307 86.1383 10.9931 86.3993 11.3178C86.6604 11.6426 86.7899 12.1076 86.7899 12.7126V13.0006H86.7885V13.0001ZM98.5528 17.0445C98.0706 17.0445 97.6987 16.9232 97.4386 16.6797C97.1785 16.4361 97.048 16.0884 97.048 15.6385V10.7843H99.0675V8.19287H97.048V2.86235H93.1551V8.19287H91.3631V10.7843H93.1551V15.994C93.1551 17.3741 93.5836 18.4334 94.4407 19.1718C95.2978 19.9107 96.5884 20.0707 97.5297 20.0707C97.839 20.0707 100 20.0467 100 20.0467V17.0406C100 17.0406 98.7907 17.0445 98.5528 17.0445Z" fill="black"/>
</svg>
