<svg width="32" height="32" viewBox="0 0 32 32" fill="none" xmlns="http://www.w3.org/2000/svg">
<g clip-path="url(#clip0)">
<path fill-rule="evenodd" clip-rule="evenodd" d="M6.79869 0.312419C7.21525 0.728979 7.21525 1.40435 6.79869 1.82091L1.82091 6.79869C1.40435 7.21525 0.728979 7.21525 0.31242 6.79869C-0.10414 6.38213 -0.10414 5.70676 0.312419 5.2902L5.2902 0.31242C5.70676 -0.10414 6.38213 -0.10414 6.79869 0.312419ZM25.2013 0.31242C25.6179 -0.10414 26.2932 -0.10414 26.7098 0.31242L31.6876 5.2902C32.1041 5.70676 32.1041 6.38213 31.6876 6.79869C31.271 7.21525 30.5956 7.21525 30.1791 6.79869L25.2013 1.82091C24.7848 1.40435 24.7848 0.728979 25.2013 0.31242ZM16 5.45185C9.25804 5.45185 3.79259 10.9173 3.79259 17.6593C3.79259 24.4012 9.25804 29.8667 16 29.8667C22.742 29.8667 28.2074 24.4012 28.2074 17.6593C28.2074 10.9173 22.742 5.45185 16 5.45185ZM1.65926 17.6593C1.65926 9.73909 8.07983 3.31852 16 3.31852C23.9202 3.31852 30.3407 9.73909 30.3407 17.6593C30.3407 25.5794 23.9202 32 16 32C8.07983 32 1.65926 25.5794 1.65926 17.6593ZM16 9.95556C16.5891 9.95556 17.0667 10.4331 17.0667 11.0222V17.1717L20.0728 20.2235C20.4893 20.6401 20.4893 21.3155 20.0728 21.732C19.6562 22.1486 18.9808 22.1486 18.5643 21.732L15.2458 18.4135C15.0457 18.2135 14.9333 17.9422 14.9333 17.6593V11.0222C14.9333 10.4331 15.4109 9.95556 16 9.95556Z" fill="#0B0C1E"/>
</g>
<defs>
<clipPath id="clip0">
<rect width="32" height="32" fill="white"/>
</clipPath>
</defs>
</svg>
