<svg width="32" height="32" viewBox="0 0 32 32" fill="none" xmlns="http://www.w3.org/2000/svg">
<g clip-path="url(#clip0)">
<path fill-rule="evenodd" clip-rule="evenodd" d="M0 2C0 1.44772 0.447715 1 1 1H4.94737C5.44422 1 5.86572 1.36479 5.93702 1.8565L6.26395 4.11111H31C31.3222 4.11111 31.6247 4.26639 31.8126 4.52823C32.0004 4.79007 32.0505 5.12637 31.9473 5.43161L27.2104 19.4316C27.073 19.8378 26.6919 20.1111 26.2632 20.1111H8.58404L8.90125 22.2987C8.93948 22.5623 9.17457 22.7778 9.47468 22.7778H24.6842C26.9664 22.7778 28.8421 24.6044 28.8421 26.8889C28.8421 29.1734 26.9664 31 24.6842 31C22.402 31 20.5263 29.1734 20.5263 26.8889C20.5263 26.1149 20.7416 25.3934 21.1151 24.7778H15.6217C15.9952 25.3934 16.2105 26.1149 16.2105 26.8889C16.2105 29.1734 14.3349 31 12.0526 31C9.77041 31 7.89474 29.1734 7.89474 26.8889C7.89474 26.048 8.06501 25.1485 8.5 24.5C7.63729 24.185 7.06096 23.5444 6.92195 22.5857L4.08192 3H1C0.447715 3 0 2.55228 0 2ZM12.0526 24.7778C10.8467 24.7778 9.89474 25.737 9.89474 26.8889C9.89474 28.0408 10.8467 29 12.0526 29C13.2585 29 14.2105 28.0408 14.2105 26.8889C14.2105 25.737 13.2585 24.7778 12.0526 24.7778ZM24.6842 24.7778C23.4783 24.7778 22.5263 25.737 22.5263 26.8889C22.5263 28.0408 23.4783 29 24.6842 29C25.8901 29 26.8421 28.0408 26.8421 26.8889C26.8421 25.737 25.8901 24.7778 24.6842 24.7778ZM8.29403 18.1111H25.5458L29.606 6.11111H6.55396L8.29403 18.1111Z" fill="#0B0C1E"/>
</g>
<defs>
<clipPath id="clip0">
<rect width="32" height="32" fill="white"/>
</clipPath>
</defs>
</svg>
