<svg width="32" height="32" viewBox="0 0 32 32" fill="none" xmlns="http://www.w3.org/2000/svg">
<g clip-path="url(#clip0)">
<path fill-rule="evenodd" clip-rule="evenodd" d="M6.66667 2C6.66667 1.44772 7.11438 1 7.66667 1H24.3333C24.8856 1 25.3333 1.44772 25.3333 2V4.29412H26.8333C29.6756 4.29412 32 6.57424 32 9.41176C32 12.2493 29.6756 14.5294 26.8333 14.5294H25.3333V15.1765C25.3333 19.9524 21.6757 23.8659 17 24.3593V29H22.6667C23.219 29 23.6667 29.4477 23.6667 30C23.6667 30.5523 23.219 31 22.6667 31H9.33333C8.78105 31 8.33333 30.5523 8.33333 30C8.33333 29.4477 8.78105 29 9.33333 29H15V24.3593C10.3243 23.8659 6.66667 19.9524 6.66667 15.1765V14.5294H5.16667C2.32438 14.5294 -2.38419e-07 12.2493 0 9.41176C2.38419e-07 6.57424 2.32439 4.29412 5.16667 4.29412H6.66667V2ZM8.66667 5.29412V15.1765C8.66667 19.1613 11.9387 22.4118 16 22.4118C20.0613 22.4118 23.3333 19.1613 23.3333 15.1765V3H8.66667V5.29412ZM25.3333 6.29412V12.5294H26.8333C28.5934 12.5294 30 11.1225 30 9.41176C30 7.70106 28.5934 6.29412 26.8333 6.29412H25.3333ZM6.66667 12.5294V6.29412H5.20703C3.44693 6.29412 2 7.70106 2 9.41176C2 11.1225 3.40657 12.5294 5.16667 12.5294H6.66667Z" fill="#0B0C1E"/>
</g>
<defs>
<clipPath id="clip0">
<rect width="32" height="32" fill="white"/>
</clipPath>
</defs>
</svg>
