<svg width="32" height="32" viewBox="0 0 32 32" fill="none" xmlns="http://www.w3.org/2000/svg">
<path fill-rule="evenodd" clip-rule="evenodd" d="M29.6061 0.204656C29.8543 0.393802 30 0.687962 30 1.00001V24.8235C30 27.8045 27.6014 30.2353 24.625 30.2353C21.6486 30.2353 19.25 27.8045 19.25 24.8235C19.25 21.8426 21.6486 19.4118 24.625 19.4118C25.9052 19.4118 27.0785 19.8284 28 20.5781V2.31216L10.75 7.05624V26.5882C10.75 29.5692 8.3514 32 5.375 32C2.3986 32 0 29.5692 0 26.5882C0 23.6073 2.3986 21.1765 5.375 21.1765C6.65518 21.1765 7.82848 21.6262 8.75 22.3759V6.29413C8.75 5.84397 9.05078 5.4493 9.48483 5.32993L28.7348 0.0358082C29.0357 -0.0469385 29.358 0.0155094 29.6061 0.204656ZM8.75 26.5882C8.75 24.6961 7.23109 23.1765 5.375 23.1765C3.51891 23.1765 2 24.6961 2 26.5882C2 28.4804 3.51891 30 5.375 30C7.23109 30 8.75 28.4804 8.75 26.5882ZM28 24.8235C28 22.9314 26.4811 21.4118 24.625 21.4118C22.7689 21.4118 21.25 22.9314 21.25 24.8235C21.25 26.7157 22.7689 28.2353 24.625 28.2353C26.4811 28.2353 28 26.7157 28 24.8235Z" fill="#0B0C1E"/>
</svg>
