<svg width="28" height="28" viewBox="0 0 28 28" fill="none" xmlns="http://www.w3.org/2000/svg">
<path d="M26.9999 20.4661V24.3802C27.006 25.8764 25.6606 27.1259 24.15 26.9896C11.1118 26.9998 1.00073 16.7948 1.01094 3.84413C0.874879 2.34156 2.11812 1.00128 3.61245 0.999882H7.53433C8.16877 0.993648 8.78384 1.21786 9.26484 1.63074C10.6577 2.82638 11.5121 6.78875 11.1737 8.3726C10.9094 9.60919 9.66292 10.4743 8.8155 11.3201C10.6764 14.5865 13.3864 17.291 16.6592 19.1484C17.5067 18.3025 18.3735 17.0585 19.6125 16.7948C21.202 16.4565 25.2118 17.3374 26.381 18.7145C26.7955 19.2029 27.0159 19.8262 26.9999 20.4661Z" stroke="#0B0C1E" stroke-width="2" stroke-linecap="round" stroke-linejoin="round"/>
</svg>
