<svg width="32" height="32" viewBox="0 0 32 32" fill="none" xmlns="http://www.w3.org/2000/svg">
<path fill-rule="evenodd" clip-rule="evenodd" d="M1 16.5C1 8.49187 7.49187 2 15.5 2C23.5081 2 30 8.49187 30 16.5V18.442C30 19.3867 29.7256 20.2701 29.2518 21.0136C28.4029 22.3455 26.9102 23.2321 25.2098 23.2321C23.3114 23.2321 21.7752 22.1013 21 20.5C19.7724 22.1424 17.7082 23.2321 15.5 23.2321C11.7819 23.2321 8.76786 20.2181 8.76786 16.5C8.76786 12.7819 11.7819 9.76786 15.5 9.76786C19.2181 9.76786 22.2321 12.7819 22.2321 16.5V18.442C22.2321 20.0865 23.5653 21.4196 25.2098 21.4196C26.2653 21.4196 27.1932 20.8712 27.7233 20.0395C28.0171 19.5784 28.1875 19.0315 28.1875 18.442V16.5C28.1875 9.49289 22.5071 3.8125 15.5 3.8125C8.49289 3.8125 2.8125 9.49289 2.8125 16.5C2.8125 23.5071 8.49289 29.1875 15.5 29.1875C18.1968 29.1875 20.6947 28.3471 22.7494 26.9139C23.1599 26.6276 23.7248 26.7282 24.0111 27.1387C24.2975 27.5492 24.1968 28.1141 23.7863 28.4005C21.4373 30.039 18.5795 31 15.5 31C7.49187 31 1 24.5081 1 16.5ZM20.4196 16.5C20.4196 13.783 18.217 11.5804 15.5 11.5804C12.783 11.5804 10.5804 13.783 10.5804 16.5C10.5804 19.217 12.783 21.4196 15.5 21.4196C18.217 21.4196 20.4196 19.217 20.4196 16.5Z" fill="#0B0C1E"/>
</svg>
