<svg width="32" height="32" viewBox="0 0 32 32" fill="none" xmlns="http://www.w3.org/2000/svg">
<path fill-rule="evenodd" clip-rule="evenodd" d="M7.22724 1.11242C7.71755 0.858229 8.32109 1.04964 8.57529 1.53995L15.5 14.897L22.4247 1.53995C22.6789 1.04964 23.2824 0.858229 23.7728 1.11242C24.2631 1.36661 24.4545 1.97015 24.2003 2.46046L16.6264 17.0697L20 23.5C20.8716 22.1376 22.3552 21.2224 24.0938 21.2224C26.7992 21.2224 29 23.4071 29 26.1113C29 28.8156 26.7992 31.0002 24.0938 31.0002C21.4744 31.0002 19.3281 28.9524 19.1941 26.3679L15.5 19.2423L11.8059 26.3679C11.6719 28.9524 9.52557 31.0002 6.90625 31.0002C4.20081 31.0002 2 28.8156 2 26.1113C2 23.4071 4.20081 21.2224 6.90625 21.2224C8.6448 21.2224 10.175 22.1246 11.0466 23.487L14.3736 17.0697L6.79971 2.46046C6.54552 1.97015 6.73693 1.36661 7.22724 1.11242ZM6.90625 23.2224C5.29697 23.2224 4 24.52 4 26.1113C4 27.7026 5.29697 29.0002 6.90625 29.0002C8.51553 29.0002 9.8125 27.7026 9.8125 26.1113C9.8125 24.52 8.51553 23.2224 6.90625 23.2224ZM24.0938 23.2224C22.4845 23.2224 21.1875 24.52 21.1875 26.1113C21.1875 27.7026 22.4845 29.0002 24.0938 29.0002C25.703 29.0002 27 27.7026 27 26.1113C27 24.52 25.703 23.2224 24.0938 23.2224Z" fill="#0B0C1E"/>
</svg>
