<svg width="134" height="47" viewBox="0 0 134 47" fill="none" xmlns="http://www.w3.org/2000/svg">
<path d="M2.79809 2.00531L28.5312 0.106055C31.6912 -0.165584 32.5043 0.0163734 34.4904 1.4624L42.7047 7.24871C44.0601 8.24374 44.5119 8.51464 44.5119 9.59934V41.3352C44.5119 43.3242 43.789 44.5004 41.2614 44.6804L11.3778 46.489C9.48044 46.5797 8.57744 46.3087 7.58383 45.0421L1.53468 37.1761C0.450742 35.7282 0 34.645 0 33.3776V5.16862C0 3.54212 0.723114 2.18541 2.79809 2.00531Z" fill="white"/>
<path fill-rule="evenodd" clip-rule="evenodd" d="M28.5312 0.106055L2.79809 2.00531C0.723114 2.18541 0 3.54212 0 5.16862V33.3776C0 34.645 0.450742 35.7282 1.53468 37.1761L7.58383 45.0421C8.57744 46.3087 9.48044 46.5797 11.3778 46.489L41.2614 44.6804C43.789 44.5004 44.5119 43.3242 44.5119 41.3352V9.59934C44.5119 8.57121 44.106 8.27421 42.9095 7.39869C42.8436 7.35052 42.7754 7.3006 42.7047 7.24871L34.4904 1.4624C32.5043 0.0163734 31.6912 -0.165584 28.5312 0.106055ZM12.0544 9.07901C9.61471 9.24413 9.06036 9.28165 7.67492 8.15354L4.15173 5.35078C3.79239 4.98835 3.97262 4.53625 4.87478 4.44658L29.6127 2.63811C31.6886 2.45689 32.7717 3.18139 33.5847 3.81399L37.8277 6.88836C38.0083 6.9784 38.459 7.52021 37.9171 7.52021L12.3693 9.05778L12.0544 9.07901ZM9.20775 41.0636V14.121C9.20775 12.9459 9.5689 12.403 10.6517 12.3118L39.9924 10.5945C40.9875 10.5041 41.4382 11.1374 41.4382 12.3118V39.0736C41.4382 40.2498 41.2572 41.2458 39.6315 41.3354L11.5546 42.9637C9.92969 43.0533 9.20775 42.5116 9.20775 41.0636ZM36.9261 15.5662C37.1061 16.3808 36.9261 17.1946 36.112 17.2861L34.7591 17.5562V37.447C33.5846 38.0798 32.5014 38.4415 31.5989 38.4415C30.1539 38.4415 29.792 37.9891 28.7096 36.6336L19.8607 22.71V36.1815L22.6608 36.8148C22.6608 36.8148 22.6608 38.4415 20.4017 38.4415L14.1739 38.8036C13.9929 38.4415 14.1739 37.5381 14.8055 37.3571L16.4308 36.9056V19.2013L14.1742 18.9126C13.9933 18.098 14.444 16.9236 15.7088 16.8325L22.39 16.3811L31.5989 30.486V18.0083L29.251 17.7382C29.0708 16.7425 29.792 16.0194 30.6949 15.9297L36.9261 15.5662Z" fill="black"/>
<path d="M64.2294 32.9432V20.6801H64.4417L73.2831 32.9432H76.0679V14.9231H72.9709V27.1738H72.7586L63.9172 14.9231H61.1199V32.9432H64.2294Z" fill="black"/>
<path d="M84.8169 33.2178C88.9005 33.2178 91.3856 30.5454 91.3856 26.1122C91.3856 21.6915 88.888 19.0066 84.8169 19.0066C80.7584 19.0066 78.2483 21.704 78.2483 26.1122C78.2483 30.5454 80.7209 33.2178 84.8169 33.2178ZM84.8169 30.6203C82.6565 30.6203 81.4202 28.9719 81.4202 26.1122C81.4202 23.265 82.6565 21.6041 84.8169 21.6041C86.9649 21.6041 88.2012 23.265 88.2012 26.1122C88.2012 28.9719 86.9773 30.6203 84.8169 30.6203Z" fill="black"/>
<path d="M94.2153 15.9346V19.3688H92.0549V21.8414H94.2153V29.2967C94.2153 31.9441 95.4641 33.0056 98.5986 33.0056C99.198 33.0056 99.7724 32.9432 100.222 32.8558V30.4331C99.8474 30.4706 99.6101 30.4955 99.173 30.4955C97.8743 30.4955 97.2998 29.8961 97.2998 28.5474V21.8414H100.222V19.3688H97.2998V15.9346H94.2153Z" fill="black"/>
<path d="M102.078 32.9431H105.162V19.2813H102.078V32.9431ZM103.614 17.021C104.638 17.021 105.462 16.1968 105.462 15.1603C105.462 14.1238 104.638 13.2871 103.614 13.2871C102.602 13.2871 101.766 14.1238 101.766 15.1603C101.766 16.1968 102.602 17.021 103.614 17.021Z" fill="black"/>
<path d="M113.624 33.2178C117.708 33.2178 120.193 30.5454 120.193 26.1122C120.193 21.6915 117.695 19.0066 113.624 19.0066C109.565 19.0066 107.055 21.704 107.055 26.1122C107.055 30.5454 109.528 33.2178 113.624 33.2178ZM113.624 30.6203C111.464 30.6203 110.227 28.9719 110.227 26.1122C110.227 23.265 111.464 21.6041 113.624 21.6041C115.772 21.6041 117.008 23.265 117.008 26.1122C117.008 28.9719 115.784 30.6203 113.624 30.6203Z" fill="black"/>
<path d="M122.036 32.9431H125.133V24.9883C125.133 22.9777 126.294 21.704 128.142 21.704C130.028 21.704 130.902 22.7529 130.902 24.8384V32.9431H133.999V24.1016C133.999 20.8423 132.338 19.0066 129.291 19.0066C127.256 19.0066 125.882 19.9432 125.233 21.4667H125.02V19.2813H122.036V32.9431Z" fill="black"/>
</svg>
