<svg width="164" height="36" viewBox="0 0 164 36" fill="none" xmlns="http://www.w3.org/2000/svg">
<g clip-path="url(#clip0)">
<path d="M65.484 20.4481L62.6432 12.7902C62.5272 12.477 62.0842 12.477 61.968 12.7902L59.1276 20.4486C59.1075 20.503 59.1008 20.5616 59.1081 20.6191C59.1154 20.6767 59.1366 20.7317 59.1698 20.7793C59.2029 20.827 59.2471 20.8659 59.2986 20.8928C59.3501 20.9196 59.4073 20.9337 59.4653 20.9336H65.1464C65.2044 20.9336 65.2616 20.9196 65.3131 20.8927C65.3645 20.8658 65.4087 20.8268 65.4419 20.7792C65.475 20.7315 65.4961 20.6765 65.5034 20.6189C65.5107 20.5613 65.5042 20.5025 65.484 20.4481ZM66.7964 24.7525H57.8156C57.7421 24.7525 57.6704 24.775 57.61 24.817C57.5497 24.8589 57.5037 24.9184 57.4781 24.9872L55.71 29.7522C55.6845 29.8211 55.6384 29.8805 55.5781 29.9225C55.5178 29.9644 55.4461 29.9869 55.3726 29.9869H51.48C51.4212 29.9869 51.3632 29.9725 51.3113 29.9449C51.2593 29.9173 51.2149 29.8774 51.1819 29.8286C51.149 29.7799 51.1284 29.7238 51.1222 29.6653C51.1159 29.6068 51.1241 29.5476 51.146 29.493L60.1078 7.16773C60.1346 7.10104 60.1808 7.04392 60.2404 7.00371C60.3 6.96351 60.3702 6.94206 60.4421 6.94213H64.1693C64.3162 6.94213 64.4484 7.03141 64.5034 7.16773L73.465 29.4928C73.487 29.5474 73.4952 29.6066 73.489 29.6652C73.4828 29.7238 73.4623 29.7799 73.4293 29.8287C73.3963 29.8775 73.3519 29.9175 73.2998 29.9451C73.2478 29.9727 73.1898 29.9872 73.1309 29.9872H69.2391C69.1656 29.9871 69.0938 29.9646 69.0335 29.9226C68.9732 29.8806 68.9272 29.8211 68.9016 29.7522L67.1333 24.9872C67.1077 24.9184 67.0617 24.8589 67.0014 24.817C66.9411 24.775 66.8699 24.7525 66.7964 24.7525ZM75.2888 14.7772H78.618C78.7135 14.7772 78.8051 14.8151 78.8726 14.8826C78.9401 14.9501 78.978 15.0417 78.978 15.1372V29.6269C78.978 29.7224 78.9401 29.814 78.8726 29.8815C78.8051 29.949 78.7135 29.9869 78.618 29.9869H75.2888C75.1933 29.9869 75.1017 29.949 75.0342 29.8815C74.9667 29.814 74.9288 29.7224 74.9288 29.6269V15.1369C74.9288 15.0414 74.9667 14.9499 75.0342 14.8824C75.1017 14.8149 75.1933 14.7772 75.2888 14.7772ZM91.1201 18.3018C91.1201 18.3973 91.0822 18.4889 91.0147 18.5564C90.9472 18.6239 90.8556 18.6618 90.7601 18.6618H90.6593C89.0132 18.6618 87.8057 19.0568 87.0377 19.8469C86.2692 20.637 85.8857 21.9431 85.8857 23.7647V29.6269C85.8857 29.7224 85.8478 29.814 85.7803 29.8815C85.7128 29.949 85.6212 29.9869 85.5257 29.9869H82.2291C82.1336 29.9869 82.042 29.949 81.9745 29.8815C81.907 29.814 81.8691 29.7224 81.8691 29.6269V15.1369C81.8691 15.0414 81.907 14.9499 81.9745 14.8824C82.042 14.8149 82.1336 14.7769 82.2291 14.7769H85.4926C85.5881 14.7769 85.6796 14.8149 85.7472 14.8824C85.8147 14.9499 85.8526 15.0414 85.8526 15.1369V18.003L86 18C86.395 16.8149 86.9391 15.9076 87.7954 15.2706C88.651 14.6344 89.7046 14.3159 90.9555 14.3159H91.1201V18.3018ZM100.223 18.1679C100.128 18.1679 100.036 18.2058 99.9688 18.2733C99.9012 18.3408 99.8633 18.4324 99.8633 18.5279V24.5548C99.8633 25.1694 99.9833 25.6084 100.225 25.8716C100.466 26.1349 100.884 26.2667 101.476 26.2667H101.808C101.903 26.2667 101.995 26.3046 102.062 26.3721C102.13 26.4396 102.168 26.5312 102.168 26.6267V29.6596C102.168 29.755 102.13 29.8466 102.062 29.9141C101.995 29.9816 101.903 30.0196 101.808 30.0196H100.39C98.9192 30.0196 97.789 29.6411 96.9989 28.8839C96.2086 28.1267 95.8136 27.0023 95.8136 25.5095V18.5279C95.8136 18.4324 95.7756 18.3408 95.7081 18.2733C95.6406 18.2058 95.549 18.1679 95.4536 18.1679H93.3754C93.2799 18.1679 93.1883 18.13 93.1208 18.0624C93.0533 17.9949 93.0154 17.9034 93.0154 17.8079V15.1369C93.0154 15.0414 93.0533 14.9499 93.1208 14.8824C93.1883 14.8149 93.2799 14.7769 93.3754 14.7769H95.4538C95.5493 14.7769 95.6408 14.739 95.7084 14.6715C95.7759 14.604 95.8138 14.5124 95.8138 14.4169V9.04645C95.8138 8.95097 95.8517 8.8594 95.9192 8.79189C95.9867 8.72437 96.0783 8.68645 96.1738 8.68645H99.5031C99.5986 8.68645 99.6901 8.72437 99.7576 8.79189C99.8251 8.8594 99.8631 8.95097 99.8631 9.04645V14.4169C99.8631 14.5124 99.901 14.604 99.9685 14.6715C100.036 14.739 100.128 14.7769 100.223 14.7769H102.631C102.726 14.7769 102.818 14.8149 102.885 14.8824C102.953 14.9499 102.991 15.0414 102.991 15.1369V17.8081C102.991 17.9036 102.953 17.9952 102.885 18.0627C102.818 18.1302 102.726 18.1681 102.631 18.1681L100.223 18.1679ZM115.468 25.4766C116.226 24.6865 116.604 23.655 116.604 22.3818C116.604 21.1093 116.226 20.0773 115.468 19.2872C114.711 18.4972 113.718 18.1021 112.489 18.1021C111.259 18.1021 110.267 18.4972 109.509 19.2872C108.752 20.0773 108.374 21.1093 108.374 22.3818C108.374 23.655 108.752 24.6865 109.509 25.4766C110.267 26.2667 111.259 26.6617 112.489 26.6617C113.718 26.6617 114.711 26.2667 115.468 25.4766ZM107.781 29.5259C106.662 28.8896 105.778 27.962 105.131 26.744C104.483 25.526 104.16 24.0721 104.16 22.3818C104.16 20.6922 104.483 19.2378 105.131 18.0198C105.778 16.8018 106.662 15.8749 107.781 15.238C108.901 14.6015 110.129 14.2832 111.468 14.2832C112.653 14.2832 113.668 14.5136 114.514 14.9744C115.358 15.4352 116.033 16.083 116.538 16.917H116.604V15.1369C116.604 15.0414 116.642 14.9499 116.709 14.8824C116.777 14.8149 116.869 14.7769 116.964 14.7769H120.26C120.356 14.7769 120.447 14.8149 120.515 14.8824C120.582 14.9499 120.62 15.0414 120.62 15.1369V29.6267C120.62 29.7222 120.582 29.8137 120.515 29.8812C120.447 29.9488 120.356 29.9867 120.26 29.9867H116.964C116.869 29.9867 116.777 29.9488 116.709 29.8812C116.642 29.8137 116.604 29.7222 116.604 29.6267V27.8468H116.538C116.033 28.6813 115.358 29.3284 114.514 29.7892C113.668 30.25 112.654 30.4804 111.468 30.4804C110.129 30.4804 108.901 30.1621 107.781 29.5259ZM134.33 25.4766C135.087 24.6865 135.466 23.655 135.466 22.3818C135.466 21.1093 135.087 20.0773 134.33 19.2872C133.573 18.4972 132.58 18.1021 131.351 18.1021C130.121 18.1021 129.128 18.4972 128.371 19.2872C127.614 20.0773 127.235 21.1093 127.235 22.3818C127.235 23.655 127.614 24.6865 128.371 25.4766C129.128 26.2667 130.121 26.6617 131.351 26.6617C132.58 26.6617 133.573 26.2667 134.33 25.4766ZM129.326 29.7892C128.481 29.3284 127.806 28.6813 127.301 27.8468H127.235V29.6267C127.235 29.7222 127.197 29.8137 127.13 29.8812C127.062 29.9488 126.971 29.9867 126.875 29.9867H123.546C123.451 29.9867 123.359 29.9488 123.291 29.8812C123.224 29.8137 123.186 29.7222 123.186 29.6267V7.30141C123.186 7.20593 123.224 7.11436 123.291 7.04685C123.359 6.97933 123.451 6.94141 123.546 6.94141H126.875C126.971 6.94141 127.062 6.97933 127.13 7.04685C127.197 7.11436 127.235 7.20593 127.235 7.30141V16.9168H127.301C127.806 16.0828 128.481 15.4352 129.326 14.9744C130.171 14.5134 131.186 14.283 132.371 14.283C133.71 14.283 134.939 14.6012 136.058 15.2377C137.178 15.8747 138.061 16.8016 138.709 18.0193C139.356 19.238 139.68 20.6924 139.68 22.382C139.68 24.0724 139.356 25.526 138.709 26.7443C138.061 27.9623 137.178 28.8899 136.059 29.5259C134.939 30.1624 133.71 30.4808 132.372 30.4808C131.186 30.4808 130.171 30.2502 129.326 29.7892ZM145.289 29.9869H141.96C141.865 29.9869 141.773 29.949 141.705 29.8815C141.638 29.814 141.6 29.7224 141.6 29.6269V7.30213C141.6 7.20665 141.638 7.11508 141.705 7.04757C141.773 6.98005 141.865 6.94213 141.96 6.94213H145.289C145.385 6.94213 145.476 6.98005 145.544 7.04757C145.611 7.11508 145.649 7.20665 145.649 7.30213V29.6269C145.649 29.7224 145.611 29.814 145.544 29.8815C145.476 29.949 145.385 29.9869 145.289 29.9869ZM153.143 18.2999C152.591 18.7304 152.218 19.352 152.025 20.1652C151.972 20.3893 152.147 20.6044 152.377 20.6044H158.713C158.933 20.6044 159.106 20.4076 159.07 20.1906C158.944 19.4214 158.614 18.8082 158.081 18.3493C157.455 17.8117 156.637 17.5429 155.628 17.5429C154.618 17.5429 153.79 17.7952 153.143 18.2999ZM161.258 16.4068C162.553 17.8228 163.2 19.8256 163.2 22.4149V22.845C163.2 22.9405 163.162 23.0321 163.095 23.0996C163.027 23.1671 162.936 23.205 162.84 23.205H152.255C152.202 23.2051 152.15 23.2167 152.102 23.239C152.055 23.2613 152.012 23.2938 151.978 23.3342C151.945 23.3745 151.92 23.4218 151.906 23.4727C151.892 23.5236 151.89 23.5769 151.899 23.6288C152.068 24.5908 152.493 25.3549 153.175 25.9211C153.954 26.5691 154.937 26.8924 156.122 26.8924C157.652 26.8924 159.068 26.2952 160.37 25.1008C160.53 24.9548 160.782 24.9858 160.905 25.1632L162.524 27.4864C162.574 27.5586 162.597 27.647 162.587 27.7347C162.576 27.8224 162.534 27.9033 162.469 27.962C161.674 28.6575 160.791 29.2443 159.842 29.7071C158.788 30.2226 157.548 30.4808 156.122 30.4808C154.476 30.4808 153.038 30.1458 151.809 29.4767C150.58 28.8076 149.625 27.8639 148.945 26.6454C148.265 25.4274 147.925 24.0174 147.925 22.4149C147.925 20.8132 148.254 19.3976 148.912 18.1681C149.57 16.9393 150.492 15.9846 151.678 15.304C152.863 14.624 154.245 14.2835 155.826 14.2835C158.151 14.2835 159.962 14.9915 161.258 16.4068ZM79.4129 9.42037C79.4129 10.7783 78.312 11.8792 76.9539 11.8792C75.5955 11.8792 74.4946 10.7783 74.4946 9.42013C74.4946 8.06197 75.5957 6.96109 76.9539 6.96109C78.312 6.96109 79.4129 8.06221 79.4129 9.42037Z" fill="#333333"/>
<path d="M18.96 0.448449L3.12963 6.99877C2.24931 7.36309 2.25843 8.61373 3.14427 8.96485L19.0407 15.2687C20.4374 15.8226 21.9928 15.8226 23.3895 15.2687L39.2861 8.96461C40.1717 8.61373 40.1813 7.36333 39.3005 6.99901L23.4706 0.448209C22.0264 -0.149403 20.404 -0.149403 18.9598 0.448209" fill="#FCB400"/>
<path d="M22.6255 18.7108V34.4589C22.6255 35.2077 23.3808 35.7208 24.077 35.4448L41.7904 28.5693C41.988 28.491 42.1575 28.3551 42.2769 28.1793C42.3963 28.0035 42.4601 27.7959 42.46 27.5834V11.8355C42.46 11.0865 41.7048 10.5736 41.0085 10.8496L23.2951 17.7251C23.0976 17.8035 22.9281 17.9394 22.8087 18.1152C22.6894 18.291 22.6255 18.4986 22.6255 18.7111" fill="#18BFFF"/>
<path d="M18.4891 19.5237L13.2322 22.062L12.6984 22.32L1.60128 27.6372C0.89808 27.9765 0 27.4639 0 26.6825V11.9018C0 11.6191 0.14496 11.375 0.33936 11.1914C0.419112 11.112 0.50959 11.0441 0.60816 10.9898C0.87312 10.8307 1.25136 10.7882 1.57296 10.9154L18.4008 17.5831C19.2562 17.9224 19.3234 19.121 18.4891 19.524" fill="#F82B60"/>
<path d="M18.4891 19.5237L13.2322 22.062L0.339355 11.1912C0.419123 11.1118 0.5096 11.0441 0.608155 10.9898C0.873115 10.8307 1.25136 10.7882 1.57296 10.9154L18.4008 17.5831C19.2562 17.9224 19.3234 19.121 18.4891 19.524" fill="black" fill-opacity="0.25"/>
</g>
<defs>
<clipPath id="clip0">
<rect width="164" height="36" fill="white"/>
</clipPath>
</defs>
</svg>
