<svg width="118" height="40" viewBox="0 0 118 40" fill="none" xmlns="http://www.w3.org/2000/svg">
<path d="M50.4968 21.4037C50.4968 26.9921 46.125 31.1101 40.7598 31.1101C35.3945 31.1101 31.0227 26.9921 31.0227 21.4037C31.0227 15.7759 35.3945 11.6973 40.7598 11.6973C46.125 11.6973 50.4968 15.7759 50.4968 21.4037ZM46.2344 21.4037C46.2344 17.9115 43.7006 15.5221 40.7598 15.5221C37.819 15.5221 35.2851 17.9115 35.2851 21.4037C35.2851 24.8609 37.819 27.2853 40.7598 27.2853C43.7006 27.2853 46.2344 24.8565 46.2344 21.4037Z" fill="#EA4335"/>
<path d="M71.5029 21.4037C71.5029 26.9921 67.1311 31.1101 61.7659 31.1101C56.4006 31.1101 52.0288 26.9921 52.0288 21.4037C52.0288 15.7803 56.4006 11.6973 61.7659 11.6973C67.1311 11.6973 71.5029 15.7759 71.5029 21.4037ZM67.2405 21.4037C67.2405 17.9115 64.7067 15.5221 61.7659 15.5221C58.8251 15.5221 56.2912 17.9115 56.2912 21.4037C56.2912 24.8609 58.8251 27.2853 61.7659 27.2853C64.7067 27.2853 67.2405 24.8565 67.2405 21.4037Z" fill="#FBBC05"/>
<path d="M91.6333 12.2837V29.7097C91.6333 36.878 87.4058 39.8056 82.4082 39.8056C77.7038 39.8056 74.8724 36.6591 73.8046 34.0859L77.5156 32.5411C78.1764 34.1209 79.7956 35.9852 82.4038 35.9852C85.6029 35.9852 87.5853 34.0115 87.5853 30.2961V28.9001H87.4365C86.4825 30.0773 84.6445 31.1057 82.3251 31.1057C77.4719 31.1057 73.0256 26.8783 73.0256 21.4387C73.0256 15.9597 77.4719 11.6973 82.3251 11.6973C84.6401 11.6973 86.4557 12.7257 87.4141 13.8679H87.5853V12.2881H91.6333V12.2837ZM87.8872 21.4387C87.8872 18.0209 85.6072 15.5221 82.7058 15.5221C79.765 15.5221 77.3012 18.0209 77.3012 21.4387C77.3012 24.8215 79.765 27.2853 82.7058 27.2853C85.6072 27.2853 87.8872 24.8215 87.8872 21.4387Z" fill="#4285F4"/>
<path d="M98.3071 2.06982V30.5152H94.1497V2.06982H98.3071Z" fill="#34A853"/>
<path d="M114.508 24.5983L117.816 26.8039C116.748 28.3837 114.175 31.1057 109.729 31.1057C104.215 31.1057 100.097 26.8433 100.097 21.3993C100.097 15.6271 104.25 11.6929 109.252 11.6929C114.289 11.6929 116.753 15.7015 117.558 17.8677L118 18.9705L105.025 24.3445C106.018 26.2919 107.563 27.2853 109.729 27.2853C111.9 27.2853 113.405 26.2175 114.508 24.5983ZM104.324 21.1061L112.998 17.5045C112.521 16.2923 111.086 15.4477 109.396 15.4477C107.23 15.4477 104.215 17.3601 104.324 21.1061Z" fill="#EA4335"/>
<path d="M15.2861 18.8786V14.7606H29.163C29.2987 15.4783 29.3687 16.3273 29.3687 17.2463C29.3687 20.3359 28.5241 24.1563 25.8021 26.8783C23.1545 29.6353 19.7717 31.1057 15.2905 31.1057C6.98442 31.1057 0 24.3401 0 16.0341C0 7.72802 6.98442 0.962402 15.2905 0.962402C19.8855 0.962402 23.1589 2.7654 25.6183 5.11542L22.7125 8.02122C20.9489 6.36702 18.5595 5.08041 15.2861 5.08041C9.22067 5.08041 4.47686 9.96863 4.47686 16.0341C4.47686 22.0995 9.22067 26.9877 15.2861 26.9877C19.2203 26.9877 21.4609 25.4079 22.8963 23.9725C24.0604 22.8084 24.8262 21.1455 25.1282 18.8742L15.2861 18.8786Z" fill="#4285F4"/>
</svg>
